<svg xmlns="http://www.w3.org/2000/svg" viewBox="0 0 32 32" fill="none">
  <rect width="32" height="32" rx="8" fill="#059669"/>
  <g transform="translate(7, 7) scale(0.75)" stroke="white" stroke-width="2" stroke-linecap="round" stroke-linejoin="round" fill="white">
    <path d="M11.017 2.814a1 1 0 0 1 1.966 0l1.051 5.558a2 2 0 0 0 1.594 1.594l5.558 1.051a1 1 0 0 1 0 1.966l-5.558 1.051a2 2 0 0 0-1.594 1.594l-1.051 5.558a1 1 0 0 1-1.966 0l-1.051-5.558a2 2 0 0 0-1.594-1.594l-5.558-1.051a1 1 0 0 1 0-1.966l5.558-1.051a2 2 0 0 0 1.594-1.594z" fill="white" stroke="none"/>
    <path d="M20 2v4" fill="none" stroke="white"/>
    <path d="M22 4h-4" fill="none" stroke="white"/>
    <circle cx="4" cy="20" r="2" fill="white" stroke="none"/>
  </g>
</svg>
